<svg width="40" height="25" viewBox="0 0 40 25" xmlns="http://www.w3.org/2000/svg" xmlns:xlink="http://www.w3.org/1999/xlink">
    <title>
        payment_ic_discovernet
    </title>
    <defs>
        <rect id="a" width="40" height="25" rx="3"/>
    </defs>
    <g fill="none" fill-rule="evenodd">
        <mask id="b" fill="#fff">
            <use xlink:href="#a"/>
        </mask>
        <use fill-opacity=".01" fill="#FFF" xlink:href="#a"/>
        <g mask="url(#b)">
            <path d="M22.586 11.422a2.351 2.351 0 1 1-4.703 0 2.351 2.351 0 0 1 4.703 0z" fill="#F26E21"/>
            <path d="M7.571 12.547c-.277.248-.634.356-1.202.356h-.236V9.95h.236c.568 0 .911.1 1.202.361.304.268.485.682.485 1.11 0 .43-.181.858-.485 1.125zM6.545 9.195h-1.29v4.463H6.54c.68 0 1.173-.16 1.605-.515a2.237 2.237 0 0 0 .817-1.715c0-1.317-.993-2.233-2.416-2.233zM9.365 13.658h.877V9.195h-.877zM12.39 10.907c-.528-.194-.683-.321-.683-.561 0-.281.276-.496.654-.496.264 0 .48.107.71.36l.458-.594a1.975 1.975 0 0 0-1.323-.495c-.796 0-1.403.549-1.403 1.277 0 .617.283.93 1.106 1.226.345.12.52.2.607.254a.534.534 0 0 1 .264.461c0 .363-.29.63-.682.63-.418 0-.756-.207-.958-.596l-.566.543c.404.588.89.85 1.558.85.91 0 1.552-.603 1.552-1.466 0-.71-.296-1.031-1.295-1.393M13.96 11.428c0 1.313 1.04 2.33 2.376 2.33.378 0 .702-.073 1.1-.26v-1.025c-.35.349-.661.489-1.06.489-.884 0-1.511-.636-1.511-1.54 0-.856.647-1.532 1.471-1.532.418 0 .736.147 1.1.502V9.367c-.384-.193-.702-.273-1.08-.273-1.329 0-2.396 1.038-2.396 2.334M24.548 12.193l-1.201-2.998h-.958l1.91 4.577h.472l1.944-4.577h-.952l-1.215 2.998M27.114 13.658h2.49v-.755H27.99v-1.206h1.55v-.755h-1.55V9.95h1.612v-.756h-2.49v4.463M31.316 11.25h-.255V9.896h.27c.547 0 .844.228.844.663 0 .448-.297.69-.859.69zm1.762-.738c0-.836-.58-1.317-1.593-1.317h-1.302v4.463h.877v-1.794h.116l1.214 1.794h1.08l-1.418-1.88c.662-.134 1.026-.583 1.026-1.266z" fill="#0B161F"/>
            <path fill="#000" d="M11.658 17.806v-2.51l1.714 1.793v-1.634h.355v2.494l-1.714-1.79v1.647h-.355zM15.588 15.789h-.942v.564h.915v.334h-.915v.786h.942v.333h-1.297v-2.35h1.297zM16.703 15.789v2.017h-.355v-2.017h-.54v-.334h1.434v.334zM17.814 15.455l.613 1.572.64-1.686.611 1.686.65-1.572h.386l-1.05 2.5-.605-1.665-.63 1.667-1-2.502zM20.782 16.62c0-.331.122-.615.364-.852.241-.238.532-.357.871-.357.335 0 .622.12.862.36s.36.527.36.863c0 .338-.12.625-.361.86a1.214 1.214 0 0 1-.879.355c-.303 0-.576-.105-.818-.315-.266-.233-.399-.537-.399-.914zm.358.004c0 .26.087.473.262.64a.84.84 0 0 0 .602.252.848.848 0 0 0 .624-.256.865.865 0 0 0 .254-.63.86.86 0 0 0-.251-.63.829.829 0 0 0-.619-.255.836.836 0 0 0-.619.256.844.844 0 0 0-.253.623zM24.482 16.804l.728 1.002h-.434l-.671-.962h-.064v.962h-.355v-2.35h.415c.311 0 .535.058.673.175.153.13.23.3.23.514 0 .167-.048.31-.144.43a.64.64 0 0 1-.378.23zm-.441-.27h.112c.336 0 .504-.128.504-.384 0-.241-.163-.361-.49-.361h-.126v.746zM25.918 16.393l.915-.938h.474l-1.063 1.065 1.07 1.286h-.476l-.847-1.046-.073.073v.973h-.355v-2.35h.355v.937z"/>
            <path d="M49.222 13.832c-3.895 3.562-12.937 9.717-29.015 12.559 2.559.817 5.388 1.274 8.367 1.274 10.915 0 19.853-6.098 20.648-13.833z" fill="#F26E21"/>
        </g>
    </g>
</svg>
