<!-- sample rectangle -->
<svg width="25" height="25" viewBox="0 0 24 24" fill="#E1306C" xmlns="http://www.w3.org/2000/svg" aria-labelledby="instagram"><title id="instagram">instagram</title><path d="M12 0c6.627 0 12 5.373 12 12s-5.373 12-12 12S0 18.627 0 12 5.373 0 12 0"></path><g class="instagram"><path fill="#fff" d="M12.242 5.25c-1.9 0-2.137.008-2.883.042-.744.034-1.252.152-1.697.325-.46.179-.85.418-1.238.807a3.426 3.426 0 00-.807 1.238c-.173.445-.291.953-.325 1.697-.034.746-.042.984-.042 2.883s.008 2.137.042 2.882c.034.745.152 1.253.325 1.698.179.46.418.85.807 1.238.388.389.778.628 1.238.806.445.173.953.291 1.697.325.746.034.984.042 2.883.042s2.137-.008 2.882-.042c.745-.034 1.253-.152 1.698-.325a3.43 3.43 0 001.238-.806c.389-.389.628-.779.806-1.238.173-.445.291-.953.325-1.698.034-.745.042-.983.042-2.882 0-1.9-.008-2.137-.042-2.883-.034-.744-.152-1.252-.325-1.697a3.428 3.428 0 00-.806-1.238 3.428 3.428 0 00-1.238-.807c-.445-.173-.953-.291-1.698-.325-.745-.034-.983-.042-2.882-.042m0 1.26c1.867 0 2.088.007 2.825.04.682.032 1.052.146 1.298.241.327.127.56.279.804.523.245.245.396.478.523.804.096.247.21.617.241 1.298.034.738.04.959.04 2.826s-.006 2.088-.04 2.825c-.031.682-.145 1.052-.24 1.298-.128.327-.28.56-.524.804a2.168 2.168 0 01-.804.523c-.246.096-.616.21-1.298.24-.737.035-.958.042-2.825.042-1.867 0-2.088-.007-2.825-.041-.682-.031-1.052-.145-1.299-.24a2.167 2.167 0 01-.804-.524 2.167 2.167 0 01-.523-.804c-.095-.246-.21-.616-.24-1.298-.034-.737-.041-.958-.041-2.825 0-1.867.007-2.088.04-2.826.032-.681.146-1.051.241-1.298.127-.326.279-.56.523-.804.245-.244.478-.396.804-.523.247-.095.617-.21 1.299-.24.737-.034.958-.041 2.825-.041"></path><path fill="#fff" d="M12.242 14.572a2.33 2.33 0 110-4.66 2.33 2.33 0 010 4.66m0-5.92a3.59 3.59 0 100 7.18 3.59 3.59 0 000-7.18M16.813 8.51a.839.839 0 11-1.678 0 .839.839 0 011.678 0"></path></g><defs><clipPath id="instagram"><path fill="#fff" transform="translate(.69)" d="M0 0h48v48H0z"></path></clipPath></defs></svg>