<svg width="40" height="24" viewBox="0 0 40 24" fill="none" xmlns="http://www.w3.org/2000/svg">
<g clip-path="url(#clip0_32548_48657)">
<path d="M13.8718 9.29541C13.8019 9.29541 13.7424 9.34621 13.7315 9.41538L12.9215 14.552C12.9186 14.5708 12.9197 14.59 12.9249 14.6082C12.9301 14.6265 12.9391 14.6434 12.9515 14.6579C12.9638 14.6723 12.9792 14.6839 12.9964 14.6918C13.0137 14.6998 13.0324 14.7039 13.0514 14.7039H14.012C14.0819 14.7039 14.1414 14.653 14.1523 14.5839L14.3903 13.0755C14.4011 13.0065 14.4606 12.9556 14.5306 12.9556H15.4039C16.4243 12.9556 17.2905 12.211 17.4488 11.2022C17.6083 10.1848 16.8135 9.29762 15.687 9.29541H13.8718ZM14.8056 10.4421H15.5043C16.0796 10.4421 16.2669 10.7815 16.2077 11.1569C16.1485 11.5331 15.8575 11.8102 15.301 11.8102H14.5898L14.8056 10.4421ZM19.4024 10.7913C19.1599 10.7922 18.8808 10.8419 18.5674 10.9724C17.8487 11.272 17.5036 11.8911 17.357 12.3425C17.357 12.3425 16.8905 13.7196 17.9445 14.4761C17.9445 14.4761 18.922 15.2045 20.0225 14.4312L20.0035 14.552C20.0005 14.5708 20.0017 14.5899 20.0069 14.6082C20.012 14.6264 20.0211 14.6434 20.0334 14.6578C20.0457 14.6722 20.061 14.6838 20.0782 14.6918C20.0955 14.6997 20.1142 14.7039 20.1332 14.7039H21.0451C21.115 14.7039 21.1745 14.653 21.1854 14.5839L21.7401 11.0664C21.7431 11.0476 21.7419 11.0284 21.7368 11.0101C21.7316 10.9918 21.7226 10.9749 21.7103 10.9604C21.6979 10.946 21.6826 10.9344 21.6654 10.9264C21.6481 10.9184 21.6294 10.9143 21.6104 10.9143H20.6985C20.6285 10.9143 20.569 10.9652 20.5582 11.0342L20.5283 11.2236C20.5283 11.2236 20.1302 10.7886 19.4024 10.7913ZM19.4322 11.9023C19.5369 11.9023 19.6327 11.9168 19.7187 11.9444C20.1121 12.0707 20.3352 12.4487 20.2706 12.8584C20.191 13.3629 19.7773 13.7343 19.2467 13.7343C19.1421 13.7343 19.0463 13.72 18.9603 13.6923C18.5669 13.5661 18.3425 13.1881 18.407 12.7784C18.4866 12.2739 18.9017 11.9023 19.4322 11.9023Z" fill="#003087"/>
<path d="M27.0037 9.29541C26.9337 9.29541 26.8743 9.34621 26.8633 9.41538L26.0533 14.552C26.0504 14.5708 26.0516 14.59 26.0567 14.6082C26.0619 14.6265 26.071 14.6434 26.0833 14.6579C26.0957 14.6723 26.111 14.6839 26.1282 14.6918C26.1455 14.6998 26.1643 14.7039 26.1833 14.7039H27.1438C27.2137 14.7039 27.2732 14.653 27.2842 14.5839L27.5221 13.0755C27.5329 13.0065 27.5925 12.9556 27.6625 12.9556H28.5358C29.5562 12.9556 30.4223 12.211 30.5804 11.2022C30.74 10.1848 29.9453 9.29762 28.8188 9.29541H27.0037ZM27.9374 10.4421H28.6362C29.2114 10.4421 29.3988 10.7815 29.3395 11.1569C29.2803 11.5331 28.9895 11.8102 28.4329 11.8102H27.7217L27.9374 10.4421ZM32.5342 10.7913C32.2916 10.7922 32.0125 10.8419 31.6992 10.9724C30.9805 11.272 30.6353 11.8911 30.4887 12.3425C30.4887 12.3425 30.0224 13.7196 31.0764 14.4761C31.0764 14.4761 32.0538 15.2045 33.1543 14.4312L33.1353 14.552C33.1324 14.5708 33.1335 14.59 33.1387 14.6082C33.1439 14.6265 33.1529 14.6434 33.1653 14.6579C33.1776 14.6723 33.193 14.6839 33.2102 14.6918C33.2275 14.6998 33.2462 14.7039 33.2652 14.7039H34.177C34.247 14.7039 34.3064 14.653 34.3174 14.5839L34.8722 11.0664C34.8752 11.0476 34.8741 11.0284 34.8689 11.0101C34.8637 10.9918 34.8547 10.9748 34.8423 10.9604C34.83 10.9459 34.8146 10.9343 34.7974 10.9263C34.7801 10.9184 34.7613 10.9143 34.7423 10.9143H33.8304C33.7605 10.9143 33.7009 10.9652 33.6901 11.0342L33.6603 11.2236C33.6603 11.2236 33.2619 10.7886 32.5342 10.7913ZM32.564 11.9023C32.6687 11.9023 32.7645 11.9168 32.8504 11.9444C33.2438 12.0707 33.4669 12.4487 33.4024 12.8584C33.3227 13.3629 32.909 13.7343 32.3784 13.7343C32.2738 13.7343 32.1781 13.72 32.092 13.6923C31.6987 13.5661 31.4742 13.1881 31.5388 12.7784C31.6184 12.2739 32.0334 11.9023 32.564 11.9023Z" fill="#0070E0"/>
<path d="M22.1732 10.9142C22.1009 10.9142 22.0495 10.9847 22.0716 11.0535L23.0713 14.1558L22.1674 15.6177C22.1235 15.6887 22.1745 15.7803 22.2579 15.7803H23.3263C23.3569 15.7803 23.3869 15.7724 23.4135 15.7574C23.4401 15.7424 23.4624 15.7207 23.4782 15.6946L26.2702 11.0758C26.3131 11.0048 26.2619 10.9141 26.179 10.9141H25.1107C25.0798 10.9141 25.0495 10.9221 25.0227 10.9374C24.9959 10.9527 24.9736 10.9747 24.9579 11.0013L23.8589 12.8568L23.301 11.0151C23.2828 10.9551 23.2275 10.9141 23.165 10.9141L22.1732 10.9142Z" fill="#003087"/>
<path d="M35.9082 9.29541C35.8383 9.29541 35.7788 9.34631 35.7679 9.41538L34.9577 14.5518C34.9547 14.5706 34.9558 14.5898 34.961 14.6081C34.9662 14.6264 34.9752 14.6434 34.9876 14.6578C34.9999 14.6723 35.0152 14.6839 35.0325 14.6918C35.0498 14.6998 35.0686 14.7039 35.0876 14.7039H36.0481C36.118 14.7039 36.1776 14.653 36.1885 14.5839L36.9985 9.44731C37.0014 9.42856 37.0003 9.4094 36.9951 9.39114C36.9899 9.37288 36.9809 9.35595 36.9686 9.34152C36.9562 9.32709 36.9409 9.3155 36.9237 9.30754C36.9065 9.29958 36.8877 9.29544 36.8688 9.29541H35.9082Z" fill="#0070E0"/>
<path d="M5.86364 9.29541C5.80176 9.29546 5.74193 9.31758 5.6949 9.35778C5.64787 9.39799 5.61671 9.45365 5.60703 9.51477L5.18066 12.219C5.20054 12.0927 5.30937 11.9996 5.43727 11.9996H6.68667C7.9441 11.9996 9.01108 11.0823 9.20604 9.83924C9.22055 9.74644 9.22877 9.65276 9.23064 9.55884C8.91109 9.39129 8.53571 9.29541 8.1244 9.29541H5.86364Z" fill="#001C64"/>
<path d="M9.23122 9.55859C9.22934 9.65251 9.22112 9.74619 9.20661 9.83899C9.01165 11.0821 7.94457 11.9994 6.68724 11.9994H5.43784C5.31004 11.9994 5.20111 12.0923 5.18124 12.2187L4.7892 14.7037L4.54364 16.2626C4.53884 16.2927 4.54064 16.3235 4.54891 16.3529C4.55717 16.3822 4.57171 16.4094 4.59152 16.4326C4.61132 16.4558 4.63592 16.4744 4.66362 16.4872C4.69132 16.4999 4.72146 16.5066 4.75195 16.5065H6.10807C6.16995 16.5065 6.22978 16.4844 6.27681 16.4442C6.32384 16.404 6.355 16.3483 6.36467 16.2872L6.72187 14.0216C6.73155 13.9604 6.76274 13.9048 6.80981 13.8645C6.85689 13.8243 6.91677 13.8022 6.97868 13.8022H7.77711C9.03454 13.8022 10.1015 12.8849 10.2965 11.6419C10.4349 10.7596 9.99059 9.95675 9.23122 9.55859Z" fill="#0070E0"/>
<path d="M4.3234 7.49268C4.1956 7.49268 4.08667 7.58564 4.06679 7.71184L3.00262 14.4599C2.98244 14.588 3.08143 14.7038 3.21114 14.7038H4.78923L5.18106 12.2189L5.60743 9.5147C5.61711 9.45359 5.64826 9.39792 5.6953 9.35772C5.74233 9.31751 5.80216 9.29539 5.86404 9.29534H8.1248C8.53621 9.29534 8.91149 9.39132 9.23104 9.55878C9.25293 8.42704 8.31906 7.49268 7.03513 7.49268H4.3234Z" fill="#003087"/>
</g>
<defs>
<clipPath id="clip0_32548_48657">
<rect width="34" height="9.01385" fill="white" transform="translate(3 7.49268)"/>
</clipPath>
</defs>
</svg>
